<?xml version="1.0" encoding="UTF-8"?>
<svg width="351px" height="100px" viewBox="0 0 351 100" version="1.1" xmlns="http://www.w3.org/2000/svg" xmlns:xlink="http://www.w3.org/1999/xlink">
    <!-- Generator: Sketch 52.6 (67491) - http://www.bohemiancoding.com/sketch -->
    <title>new-logo</title>
    <desc>Created with Sketch.</desc>
    <defs>
        <path d="M75.3902925,2.1507868 C69.7506276,0.849212994 60.480264,0 50,0 C39.519736,0 30.2493724,0.849212994 24.6097075,2.1507868 C13.3652755,4.51036036 4.51036036,13.3652755 2.1507868,24.6097075 C0.849212994,30.2493724 -1.10519661e-15,39.519736 0,50 C1.10519661e-15,60.480264 0.849212994,69.7506276 2.1507868,75.3902925 C4.51036036,86.6347245 13.3652755,95.4896396 24.6097075,97.8492132 C30.2493724,99.150787 39.519736,100 50,100 C60.480264,100 69.7506276,99.150787 75.3902925,97.8492132 C86.6347245,95.4896396 95.4896396,86.6347245 97.8492132,75.3902925 C99.150787,69.7506276 100,60.480264 100,50 C100,39.519736 99.150787,30.2493724 97.8492132,24.6097075 C95.4896396,13.3652755 86.6347245,4.51036036 75.3902925,2.1507868 Z" id="path-1"></path>
    </defs>
    <g id="Page-1" stroke="none" stroke-width="1" fill="none" fill-rule="evenodd">
        <g id="new-logo">
            <g id="icon">
                <g id="bg" fill="#00B388">
                    <path d="M75.3902925,2.1507868 C69.7506276,0.849212994 60.480264,0 50,0 C39.519736,0 30.2493724,0.849212994 24.6097075,2.1507868 C13.3652755,4.51036036 4.51036036,13.3652755 2.1507868,24.6097075 C0.849212994,30.2493724 -1.10519661e-15,39.519736 0,50 C1.10519661e-15,60.480264 0.849212994,69.7506276 2.1507868,75.3902925 C4.51036036,86.6347245 13.3652755,95.4896396 24.6097075,97.8492132 C30.2493724,99.150787 39.519736,100 50,100 C60.480264,100 69.7506276,99.150787 75.3902925,97.8492132 C86.6347245,95.4896396 95.4896396,86.6347245 97.8492132,75.3902925 C99.150787,69.7506276 100,60.480264 100,50 C100,39.519736 99.150787,30.2493724 97.8492132,24.6097075 C95.4896396,13.3652755 86.6347245,4.51036036 75.3902925,2.1507868 Z" id="path-1"></path>
                </g>
                <g id="Path-Clipped">
                    <mask id="mask-2" fill="white">
                        <use xlink:href="#path-1"></use>
                    </mask>
                    <g id="path-1"></g>
                    <path d="M62.014856,76.7625772 C61.0659681,74.5040434 59.0519632,72.8033493 56.6014761,72.28913 C55.1351632,71.9507208 52.7248686,71.7299254 50,71.7299254 C47.2751314,71.7299254 44.8648368,71.9507208 43.3985239,72.28913 C40.9655441,72.7996755 38.962832,74.4798029 38.0056447,76.714255 C38.0056447,76.714255 38.0056447,76.714255 38.0056447,76.714255 C37.6736158,77.4893411 36.8799124,77.9621422 36.0402368,77.8850287 C35.8306707,77.8658059 35.6497644,77.8486034 35.4975159,77.8334442 C31.5764129,77.4430243 28.4944405,76.8983677 26.7038143,76.2627419 C26.70091,76.2612211 26.6973583,76.2596717 26.693159,76.2580936 C25.4915528,75.8065316 24.6365263,74.6468205 24.6365263,73.2874073 C24.6365263,73.2536166 24.6370546,73.2199492 24.6381034,73.186413 C24.640858,73.1317002 24.6440702,73.0758254 24.6477372,73.0188011 C24.6488031,73.0060869 24.649944,72.9933941 24.6511594,72.980723 C24.6545725,72.945142 24.6567111,72.9107418 24.6575754,72.8775225 C24.9628038,68.7965425 27.4411878,59.2423242 31.1429403,48.3373129 C35.3748047,35.8706424 39.8004235,25.7778543 41.7960941,23.8092779 C42.1146089,23.4775943 42.4821651,23.199812 42.888437,22.9855899 C43.0470167,22.8950241 43.2479484,22.808416 43.4865033,22.7267079 C43.4927371,22.7245611 43.4989774,22.7224284 43.5052241,22.7203097 C44.8164282,22.276914 47.2329601,21.9799254 49.9975908,21.9799254 C52.7670399,21.9799254 55.1835718,22.276914 56.49238,22.7195212 C56.5010226,22.7224284 56.5072629,22.7245611 56.5134967,22.7267079 C56.7520516,22.808416 56.9529833,22.8950241 57.111563,22.9855899 C57.5178349,23.199812 57.8853911,23.4775943 58.2010008,23.8057058 C58.2020308,23.8067766 58.2029992,23.8079673 58.2039059,23.8092779 C60.1995765,25.7778543 64.6251953,35.8706424 68.8570597,48.3373129 C72.5588122,59.2423242 75.0371962,68.7965425 75.3424246,72.8775225 C75.3432889,72.9107418 75.3454275,72.945142 75.3488406,72.980723 C75.350056,72.9933941 75.3511969,73.0060869 75.3522628,73.0188011 C75.3559298,73.0758254 75.359142,73.1317002 75.3618966,73.186413 C75.3629454,73.2199492 75.3634737,73.2536166 75.3634737,73.2874073 C75.3634737,74.6468205 74.5084472,75.8065316 73.306841,76.2580936 C73.3026417,76.2596717 73.29909,76.2612211 73.2961857,76.2627419 C71.5071314,76.8978098 68.4289969,77.442068 64.5128082,77.8324157 C64.3421403,77.8494271 64.1356111,77.8689939 63.8932207,77.891116 L63.893222,77.8911309 C63.0880345,77.9646176 62.3280318,77.5079953 62.014856,76.7625772 C62.014856,76.7625772 62.014856,76.7625772 62.014856,76.7625772 Z" id="Path" fill="#FFFFFF" mask="url(#mask-2)"></path>
                </g>
            </g>
            <path d="M159.725868,33.3147974 L169.281881,33.3147974 L169.281881,75.0148017 L159.725868,75.0148017 L159.725868,67.6876014 C156.739614,72.8848016 151.620322,75.8668017 144.965241,75.8668017 C133.873441,75.8668017 125,66.1540013 125,54.1408009 C125,42.1276004 133.873441,32.5 144.965241,32.5 C151.620322,32.5 156.739614,35.4820001 159.725868,40.6792003 L159.725868,33.3147974 Z M302.793674,33.3147974 L312.349687,33.3147974 L312.349687,75.0148017 L302.793674,75.0148017 L302.793674,67.6876014 C299.80742,72.8848016 294.688128,75.8668017 288.033047,75.8668017 C276.941247,75.8668017 268.067806,66.1540013 268.067806,54.1408009 C268.067806,42.1276004 276.941247,32.5 288.033047,32.5 C294.688128,32.5 299.80742,35.4820001 302.793674,40.6792003 L302.793674,33.3147974 Z M147.226462,66.804401 C154.478793,66.804401 159.939372,61.3516008 159.939372,54.1096005 C159.939372,46.9528002 154.478793,41.5 147.226462,41.5 C140.144774,41.5 134.513552,47.1232002 134.513552,54.1096005 C134.513552,61.1812008 140.144774,66.804401 147.226462,66.804401 Z M289.793555,66.804401 C297.045886,66.804401 302.506465,61.3516008 302.506465,54.1096005 C302.506465,46.9528002 297.045886,41.5 289.793555,41.5 C282.711867,41.5 277.080645,47.1232002 277.080645,54.1096005 C277.080645,61.1812008 282.711867,66.804401 289.793555,66.804401 Z M183.589463,12.5 C186.917003,12.5 189.732614,15.3116001 189.732614,18.5492002 C189.732614,21.9572004 186.917003,24.6836005 183.589463,24.6836005 C180.261923,24.6836005 177.531633,21.9572004 177.531633,18.5492002 C177.531633,15.3116001 180.261923,12.5 183.589463,12.5 Z M178.896778,33.2000008 L188.36747,33.2000008 L188.36747,74.9000025 L178.896778,74.9000025 L178.896778,33.2000008 Z M218.116737,32.3852008 C219.941184,32.3852008 221.697901,32.655735 222.964472,33.1365442 C223.709959,33.4195423 224.367666,33.7322086 224.878105,33.9962972 L221.024213,42.0529683 C219.809789,41.6853902 218.493995,41.5016012 217.1782,41.5016012 C212.570837,41.5016012 207.451544,45.3356013 207.451544,52.6628016 L207.451544,74.9000025 L197.980853,74.9000025 L197.980853,33.1999982 L207.451544,33.1999982 L207.451544,39.2012011 C209.328618,35.1968009 214.021303,32.3852008 218.116737,32.3852008 Z M265.681603,64.3352021 C262.524706,71.2364023 255.187053,75.7520025 246.484255,75.7520025 C234.112631,75.7520025 224.64194,66.4652021 224.64194,54.1112017 C224.64194,41.7572012 234.02731,32.3852008 246.398934,32.3852008 C254.504481,32.3852008 261.330204,36.3896009 264.40178,42.5240012 L256.381554,47.0396014 C254.675124,43.7168012 250.920976,41.5016012 246.398934,41.5016012 C239.231924,41.5016012 234.02731,46.9544014 234.02731,54.1112017 C234.02731,61.1828019 239.317246,66.6356022 246.484255,66.6356022 C251.347583,66.6356022 255.357696,64.3352021 257.23477,60.5012019 L265.681603,64.3352021 Z M331.433762,12.5 L331.433762,74.9000025 L321.963071,74.9000025 L321.963071,12.5 L331.433762,12.5 Z M350.517837,12.5 L350.517837,74.9000025 L341.047145,74.9000025 L341.047145,12.5 L350.517837,12.5 Z" id="woodmark" fill="#101820" fill-rule="nonzero"></path>
        </g>
    </g>
</svg>